# xmcd
#
# Track frame offsets:
#	150
#	5877
#	11760
#	28311
#	36200
#	49889
#	69923
#	77336
#	91608
#	111961
#	127693
#	147103
#	160369
#	173150
#	184538
#	198581
#	205485
#	224789
#
# Disc length: 3275 seconds
#
# Revision: 0
# Processed by: cddbd v1.5.2PL0 Copyright (c) Steve Scherf et al.
# Submitted via: EasyCDDAExtractor 10.0.5.1
#
DISCID=fb0cc912
DTITLE=Various Artist - La Musica de los Mundiales
DYEAR=2006
DGENRE=Top 40
TTITLE0=Los Piojos - Himno Nacional Argentino
TTITLE1=Popular - Gol de Maradona
TTITLE2=Quilmes - En tu cabeza hay un gol
TTITLE3=Quilmes - Gente del mundo
TTITLE4=Quilmes - Tanta gloria...
TTITLE5=Nannini Bennato - Noches magicas
TTITLE6=Cuatro 2006 - Señor trepador
TTITLE7=USA '94 - Tema oficial USA '94
TTITLE8=Ricky Martin - La copa de la vida
TTITLE9=Gorilaz - Fifa 2002
TTITLE10=Alfredo Caseros - Shimauta
TTITLE11=Popular - Vamos Argentina
TTITLE12=Chile '62 - El rock del mundial
TTITLE13=Alemania 2006 - Marca roja mundial
TTITLE14=Estelares 2006 - Verde esperanza
TTITLE15=Coca Cola - Todos juntos
TTITLE16=Shakira - Hips dont lie
TTITLE17=Fifa '98 - Fifa '98
EXTD=
EXTT0=
EXTT1=
EXTT2=
EXTT3=
EXTT4=
EXTT5=
EXTT6=
EXTT7=
EXTT8=
EXTT9=
EXTT10=
EXTT11=
EXTT12=
EXTT13=
EXTT14=
EXTT15=
EXTT16=
EXTT17=
PLAYORDER=
